<mxfile host="app.diagrams.net" modified="2023-05-22T07:30:33.364Z" agent="Mozilla/5.0 (Macintosh; Intel Mac OS X 10_15_7) AppleWebKit/537.36 (KHTML, like Gecko) Chrome/112.0.0.0 Safari/537.36" etag="NI05kM_yp3TQOybUa-1M" version="21.3.2" pages="4">
  <diagram name="ClassDiagram" id="MhF9wXVWTz9Xrop57jWd">
    <mxGraphModel dx="1434" dy="800" grid="1" gridSize="10" guides="1" tooltips="1" connect="1" arrows="1" fold="1" page="1" pageScale="1" pageWidth="827" pageHeight="1169" math="0" shadow="0">
      <root>
        <mxCell id="0" />
        <mxCell id="1" parent="0" />
        <mxCell id="owJIEZNdWxY9dRHaCqxD-2" value="&amp;lt;&amp;lt;abstract&amp;gt;&amp;gt;&lt;br&gt;QuestionPanel" style="swimlane;fontStyle=0;childLayout=stackLayout;horizontal=1;startSize=30;fillColor=none;horizontalStack=0;resizeParent=1;resizeParentMax=0;resizeLast=0;collapsible=1;marginBottom=0;whiteSpace=wrap;html=1;points=[[0,0,0,0,0],[0,0.25,0,0,0],[0,0.5,0,0,0],[0,0.75,0,0,0],[0,1,0,0,0],[0.25,0,0,0,0],[0.25,1,0,0,0],[0.5,0,0,0,0],[0.5,1,0,0,0],[0.75,0,0,0,0],[0.75,1,0,0,0],[1,0,0,0,0],[1,0.25,0,0,0],[1,0.5,0,0,0],[1,0.75,0,0,0],[1,1,0,0,0]];" parent="1" vertex="1">
          <mxGeometry x="320" y="320" width="280" height="120" as="geometry" />
        </mxCell>
        <mxCell id="owJIEZNdWxY9dRHaCqxD-3" value="#&amp;nbsp;constructor(&lt;br&gt;&lt;span style=&quot;white-space: pre;&quot;&gt; &lt;/span&gt;question: Question, &lt;br&gt;&lt;span style=&quot;white-space: pre;&quot;&gt; &lt;/span&gt;content: any, &lt;br&gt;&lt;span style=&quot;white-space: pre;&quot;&gt; &lt;/span&gt;backgroundColor: GradientColor?&lt;br&gt;)" style="text;strokeColor=none;fillColor=none;align=left;verticalAlign=top;spacingLeft=4;spacingRight=4;overflow=hidden;rotatable=0;points=[[0,0.5,0,0,0],[0.25,1,0,0,0],[0.5,1,0,0,0],[0.75,1,0,0,0],[1,0.5,0,0,0]];portConstraint=eastwest;whiteSpace=wrap;html=1;" parent="owJIEZNdWxY9dRHaCqxD-2" vertex="1">
          <mxGeometry y="30" width="280" height="90" as="geometry" />
        </mxCell>
        <mxCell id="owJIEZNdWxY9dRHaCqxD-6" value="Panel" style="swimlane;fontStyle=0;childLayout=stackLayout;horizontal=1;startSize=26;fillColor=none;horizontalStack=0;resizeParent=1;resizeParentMax=0;resizeLast=0;collapsible=1;marginBottom=0;whiteSpace=wrap;html=1;" parent="1" vertex="1">
          <mxGeometry x="390" y="220" width="140" height="60" as="geometry" />
        </mxCell>
        <mxCell id="owJIEZNdWxY9dRHaCqxD-10" value="" style="endArrow=block;endSize=16;endFill=0;html=1;rounded=0;entryX=0.5;entryY=1;entryDx=0;entryDy=0;exitX=0.5;exitY=0;exitDx=0;exitDy=0;" parent="1" source="owJIEZNdWxY9dRHaCqxD-2" target="owJIEZNdWxY9dRHaCqxD-6" edge="1">
          <mxGeometry width="160" relative="1" as="geometry">
            <mxPoint x="300" y="460" as="sourcePoint" />
            <mxPoint x="460" y="460" as="targetPoint" />
          </mxGeometry>
        </mxCell>
        <mxCell id="owJIEZNdWxY9dRHaCqxD-11" value="QuestionPanelShowQuestion" style="swimlane;fontStyle=0;childLayout=stackLayout;horizontal=1;startSize=26;fillColor=none;horizontalStack=0;resizeParent=1;resizeParentMax=0;resizeLast=0;collapsible=1;marginBottom=0;whiteSpace=wrap;html=1;" parent="1" vertex="1">
          <mxGeometry x="40" y="600" width="200" height="60" as="geometry" />
        </mxCell>
        <mxCell id="owJIEZNdWxY9dRHaCqxD-12" value="+&amp;nbsp;constructor(question: Question)" style="text;strokeColor=none;fillColor=none;align=left;verticalAlign=top;spacingLeft=4;spacingRight=4;overflow=hidden;rotatable=0;points=[[0,0.5],[1,0.5]];portConstraint=eastwest;whiteSpace=wrap;html=1;" parent="owJIEZNdWxY9dRHaCqxD-11" vertex="1">
          <mxGeometry y="26" width="200" height="34" as="geometry" />
        </mxCell>
        <mxCell id="owJIEZNdWxY9dRHaCqxD-15" value="QuestionPanelClassic" style="swimlane;fontStyle=0;childLayout=stackLayout;horizontal=1;startSize=26;fillColor=none;horizontalStack=0;resizeParent=1;resizeParentMax=0;resizeLast=0;collapsible=1;marginBottom=0;whiteSpace=wrap;html=1;points=[[0,0,0,0,0],[0,0.25,0,0,0],[0,0.5,0,0,0],[0,0.75,0,0,0],[0,1,0,0,0],[0.25,0,0,0,0],[0.25,1,0,0,0],[0.5,0,0,0,0],[0.5,1,0,0,0],[0.75,0,0,0,0],[0.75,1,0,0,0],[0.85,0,0,0,0],[1,0,0,0,0],[1,0.25,0,0,0],[1,0.5,0,0,0],[1,0.75,0,0,0],[1,1,0,0,0]];" parent="1" vertex="1">
          <mxGeometry x="280" y="520" width="200" height="60" as="geometry" />
        </mxCell>
        <mxCell id="owJIEZNdWxY9dRHaCqxD-16" value="+&amp;nbsp;constructor(question: Question)" style="text;strokeColor=none;fillColor=none;align=left;verticalAlign=top;spacingLeft=4;spacingRight=4;overflow=hidden;rotatable=0;points=[[0,0.5],[1,0.5]];portConstraint=eastwest;whiteSpace=wrap;html=1;" parent="owJIEZNdWxY9dRHaCqxD-15" vertex="1">
          <mxGeometry y="26" width="200" height="34" as="geometry" />
        </mxCell>
        <mxCell id="owJIEZNdWxY9dRHaCqxD-17" value="QuestionPanelResult" style="swimlane;fontStyle=0;childLayout=stackLayout;horizontal=1;startSize=26;fillColor=none;horizontalStack=0;resizeParent=1;resizeParentMax=0;resizeLast=0;collapsible=1;marginBottom=0;whiteSpace=wrap;html=1;points=[[0,0,0,0,0],[0,0.25,0,0,0],[0,0.5,0,0,0],[0,0.75,0,0,0],[0,1,0,0,0],[0.1,0,0,0,0],[0.25,0,0,0,0],[0.25,1,0,0,0],[0.5,0,0,0,0],[0.5,1,0,0,0],[0.75,0,0,0,0],[0.75,1,0,0,0],[1,0,0,0,0],[1,0.25,0,0,0],[1,0.5,0,0,0],[1,0.75,0,0,0],[1,1,0,0,0]];" parent="1" vertex="1">
          <mxGeometry x="680" y="520" width="200" height="60" as="geometry" />
        </mxCell>
        <mxCell id="owJIEZNdWxY9dRHaCqxD-18" value="+&amp;nbsp;constructor(question: Question)" style="text;strokeColor=none;fillColor=none;align=left;verticalAlign=top;spacingLeft=4;spacingRight=4;overflow=hidden;rotatable=0;points=[[0,0.5],[1,0.5]];portConstraint=eastwest;whiteSpace=wrap;html=1;" parent="owJIEZNdWxY9dRHaCqxD-17" vertex="1">
          <mxGeometry y="26" width="200" height="34" as="geometry" />
        </mxCell>
        <mxCell id="uxtCyuWDyrGsz1N1gTnN-1" value="QuestionPanelSingle" style="swimlane;fontStyle=0;childLayout=stackLayout;horizontal=1;startSize=26;fillColor=none;horizontalStack=0;resizeParent=1;resizeParentMax=0;resizeLast=0;collapsible=1;marginBottom=0;whiteSpace=wrap;html=1;points=[[0,0,0,0,0],[0,0.25,0,0,0],[0,0.5,0,0,0],[0,0.75,0,0,0],[0,1,0,0,0],[0.25,0,0,0,0],[0.25,1,0,0,0],[0.5,0,0,0,0],[0.5,1,0,0,0],[0.75,0,0,0,0],[0.75,1,0,0,0],[0.9,0,0,0,0],[1,0,0,0,0],[1,0.25,0,0,0],[1,0.5,0,0,0],[1,0.75,0,0,0],[1,1,0,0,0]];" parent="1" vertex="1">
          <mxGeometry x="280" y="600" width="200" height="60" as="geometry" />
        </mxCell>
        <mxCell id="uxtCyuWDyrGsz1N1gTnN-2" value="+&amp;nbsp;constructor(question: Question)" style="text;strokeColor=none;fillColor=none;align=left;verticalAlign=top;spacingLeft=4;spacingRight=4;overflow=hidden;rotatable=0;points=[[0,0.5],[1,0.5]];portConstraint=eastwest;whiteSpace=wrap;html=1;" parent="uxtCyuWDyrGsz1N1gTnN-1" vertex="1">
          <mxGeometry y="26" width="200" height="34" as="geometry" />
        </mxCell>
        <mxCell id="uxtCyuWDyrGsz1N1gTnN-3" value="QuestionPanelChallengeBuzzer" style="swimlane;fontStyle=0;childLayout=stackLayout;horizontal=1;startSize=26;fillColor=none;horizontalStack=0;resizeParent=1;resizeParentMax=0;resizeLast=0;collapsible=1;marginBottom=0;whiteSpace=wrap;html=1;points=[[0,0,0,0,0],[0,0.25,0,0,0],[0,0.5,0,0,0],[0,0.75,0,0,0],[0,1,0,0,0],[0.25,0,0,0,0],[0.25,1,0,0,0],[0.5,0,0,0,0],[0.5,1,0,0,0],[0.75,0,0,0,0],[0.75,1,0,0,0],[0.95,0,0,0,0],[1,0,0,0,0],[1,0.25,0,0,0],[1,0.5,0,0,0],[1,0.75,0,0,0],[1,1,0,0,0]];" parent="1" vertex="1">
          <mxGeometry x="280" y="680" width="200" height="60" as="geometry" />
        </mxCell>
        <mxCell id="uxtCyuWDyrGsz1N1gTnN-4" value="+&amp;nbsp;constructor(question: Question)" style="text;strokeColor=none;fillColor=none;align=left;verticalAlign=top;spacingLeft=4;spacingRight=4;overflow=hidden;rotatable=0;points=[[0,0.5],[1,0.5]];portConstraint=eastwest;whiteSpace=wrap;html=1;" parent="uxtCyuWDyrGsz1N1gTnN-3" vertex="1">
          <mxGeometry y="26" width="200" height="34" as="geometry" />
        </mxCell>
        <mxCell id="uxtCyuWDyrGsz1N1gTnN-5" value="QuestionPanelValidation" style="swimlane;fontStyle=0;childLayout=stackLayout;horizontal=1;startSize=26;fillColor=none;horizontalStack=0;resizeParent=1;resizeParentMax=0;resizeLast=0;collapsible=1;marginBottom=0;whiteSpace=wrap;html=1;points=[[0,0,0,0,0],[0,0.25,0,0,0],[0,0.5,0,0,0],[0,0.75,0,0,0],[0,1,0,0,0],[0.1,0,0,0,0],[0.25,0,0,0,0],[0.25,1,0,0,0],[0.5,0,0,0,0],[0.5,1,0,0,0],[0.75,0,0,0,0],[0.75,1,0,0,0],[1,0,0,0,0],[1,0.25,0,0,0],[1,0.5,0,0,0],[1,0.75,0,0,0],[1,1,0,0,0]];" parent="1" vertex="1">
          <mxGeometry x="600" y="600" width="200" height="60" as="geometry" />
        </mxCell>
        <mxCell id="uxtCyuWDyrGsz1N1gTnN-6" value="+&amp;nbsp;constructor(question: Question)" style="text;strokeColor=none;fillColor=none;align=left;verticalAlign=top;spacingLeft=4;spacingRight=4;overflow=hidden;rotatable=0;points=[[0,0.5],[1,0.5]];portConstraint=eastwest;whiteSpace=wrap;html=1;" parent="uxtCyuWDyrGsz1N1gTnN-5" vertex="1">
          <mxGeometry y="26" width="200" height="34" as="geometry" />
        </mxCell>
        <mxCell id="uxtCyuWDyrGsz1N1gTnN-7" value="QuestionPanelChallengeAnswer" style="swimlane;fontStyle=0;childLayout=stackLayout;horizontal=1;startSize=26;fillColor=none;horizontalStack=0;resizeParent=1;resizeParentMax=0;resizeLast=0;collapsible=1;marginBottom=0;whiteSpace=wrap;html=1;points=[[0,0,0,0,0],[0,0.25,0,0,0],[0,0.5,0,0,0],[0,0.75,0,0,0],[0,1,0,0,0],[0.1,0,0,0,0],[0.25,0,0,0,0],[0.25,1,0,0,0],[0.5,0,0,0,0],[0.5,1,0,0,0],[0.75,0,0,0,0],[0.75,1,0,0,0],[1,0,0,0,0],[1,0.25,0,0,0],[1,0.5,0,0,0],[1,0.75,0,0,0],[1,1,0,0,0]];" parent="1" vertex="1">
          <mxGeometry x="520" y="680" width="200" height="60" as="geometry" />
        </mxCell>
        <mxCell id="uxtCyuWDyrGsz1N1gTnN-8" value="+&amp;nbsp;constructor(question: Question)" style="text;strokeColor=none;fillColor=none;align=left;verticalAlign=top;spacingLeft=4;spacingRight=4;overflow=hidden;rotatable=0;points=[[0,0.5],[1,0.5]];portConstraint=eastwest;whiteSpace=wrap;html=1;" parent="uxtCyuWDyrGsz1N1gTnN-7" vertex="1">
          <mxGeometry y="26" width="200" height="34" as="geometry" />
        </mxCell>
        <mxCell id="uxtCyuWDyrGsz1N1gTnN-9" value="" style="endArrow=open;endSize=12;dashed=1;html=1;rounded=0;exitX=1;exitY=0.25;exitDx=0;exitDy=0;entryX=0;entryY=0.25;entryDx=0;entryDy=0;" parent="1" source="owJIEZNdWxY9dRHaCqxD-11" target="owJIEZNdWxY9dRHaCqxD-15" edge="1">
          <mxGeometry width="160" relative="1" as="geometry">
            <mxPoint x="590" y="490" as="sourcePoint" />
            <mxPoint x="770" y="490" as="targetPoint" />
          </mxGeometry>
        </mxCell>
        <mxCell id="uxtCyuWDyrGsz1N1gTnN-10" value="" style="endArrow=open;endSize=12;dashed=1;html=1;rounded=0;exitX=1;exitY=0.25;exitDx=0;exitDy=0;entryX=0;entryY=0.25;entryDx=0;entryDy=0;" parent="1" source="owJIEZNdWxY9dRHaCqxD-11" target="uxtCyuWDyrGsz1N1gTnN-1" edge="1">
          <mxGeometry width="160" relative="1" as="geometry">
            <mxPoint x="250" y="625" as="sourcePoint" />
            <mxPoint x="290" y="545" as="targetPoint" />
          </mxGeometry>
        </mxCell>
        <mxCell id="uxtCyuWDyrGsz1N1gTnN-11" value="" style="endArrow=open;endSize=12;dashed=1;html=1;rounded=0;exitX=1;exitY=0.25;exitDx=0;exitDy=0;entryX=0;entryY=0.25;entryDx=0;entryDy=0;" parent="1" source="owJIEZNdWxY9dRHaCqxD-11" target="uxtCyuWDyrGsz1N1gTnN-3" edge="1">
          <mxGeometry width="160" relative="1" as="geometry">
            <mxPoint x="260" y="635" as="sourcePoint" />
            <mxPoint x="300" y="555" as="targetPoint" />
          </mxGeometry>
        </mxCell>
        <mxCell id="uxtCyuWDyrGsz1N1gTnN-12" value="" style="endArrow=open;endSize=12;dashed=1;html=1;rounded=0;exitX=1;exitY=0.25;exitDx=0;exitDy=0;entryX=0;entryY=0.25;entryDx=0;entryDy=0;" parent="1" source="uxtCyuWDyrGsz1N1gTnN-3" target="uxtCyuWDyrGsz1N1gTnN-7" edge="1">
          <mxGeometry width="160" relative="1" as="geometry">
            <mxPoint x="540" y="560" as="sourcePoint" />
            <mxPoint x="580" y="480" as="targetPoint" />
          </mxGeometry>
        </mxCell>
        <mxCell id="uxtCyuWDyrGsz1N1gTnN-13" value="" style="endArrow=open;endSize=12;dashed=1;html=1;rounded=0;exitX=1;exitY=0.25;exitDx=0;exitDy=0;entryX=0;entryY=0.25;entryDx=0;entryDy=0;" parent="1" source="uxtCyuWDyrGsz1N1gTnN-1" target="uxtCyuWDyrGsz1N1gTnN-5" edge="1">
          <mxGeometry width="160" relative="1" as="geometry">
            <mxPoint x="280" y="655" as="sourcePoint" />
            <mxPoint x="320" y="575" as="targetPoint" />
          </mxGeometry>
        </mxCell>
        <mxCell id="uxtCyuWDyrGsz1N1gTnN-14" value="" style="endArrow=open;endSize=12;dashed=1;html=1;rounded=0;exitX=1;exitY=0.25;exitDx=0;exitDy=0;entryX=0;entryY=0.25;entryDx=0;entryDy=0;" parent="1" source="owJIEZNdWxY9dRHaCqxD-15" target="owJIEZNdWxY9dRHaCqxD-17" edge="1">
          <mxGeometry width="160" relative="1" as="geometry">
            <mxPoint x="290" y="665" as="sourcePoint" />
            <mxPoint x="330" y="585" as="targetPoint" />
          </mxGeometry>
        </mxCell>
        <mxCell id="uxtCyuWDyrGsz1N1gTnN-16" value="" style="endArrow=open;endSize=12;dashed=1;html=1;rounded=0;exitX=0.2;exitY=-0.015;exitDx=0;exitDy=0;entryX=0;entryY=0.25;entryDx=0;entryDy=0;exitPerimeter=0;edgeStyle=orthogonalEdgeStyle;" parent="1" source="uxtCyuWDyrGsz1N1gTnN-7" target="uxtCyuWDyrGsz1N1gTnN-5" edge="1">
          <mxGeometry width="160" relative="1" as="geometry">
            <mxPoint x="510" y="640" as="sourcePoint" />
            <mxPoint x="550" y="560" as="targetPoint" />
          </mxGeometry>
        </mxCell>
        <mxCell id="uxtCyuWDyrGsz1N1gTnN-17" value="" style="endArrow=open;endSize=12;dashed=1;html=1;rounded=0;exitX=0.2;exitY=-0.005;exitDx=0;exitDy=0;entryX=0;entryY=0.25;entryDx=0;entryDy=0;exitPerimeter=0;edgeStyle=orthogonalEdgeStyle;" parent="1" source="uxtCyuWDyrGsz1N1gTnN-5" target="owJIEZNdWxY9dRHaCqxD-17" edge="1">
          <mxGeometry width="160" relative="1" as="geometry">
            <mxPoint x="600" y="560" as="sourcePoint" />
            <mxPoint x="640" y="480" as="targetPoint" />
          </mxGeometry>
        </mxCell>
        <mxCell id="uxtCyuWDyrGsz1N1gTnN-20" value="" style="endArrow=block;endSize=16;endFill=0;html=1;rounded=0;entryX=0.5;entryY=1;entryDx=0;entryDy=0;edgeStyle=orthogonalEdgeStyle;entryPerimeter=0;exitX=0.9;exitY=0;exitDx=0;exitDy=0;exitPerimeter=0;" parent="1" source="uxtCyuWDyrGsz1N1gTnN-1" target="owJIEZNdWxY9dRHaCqxD-3" edge="1">
          <mxGeometry width="160" relative="1" as="geometry">
            <mxPoint x="460" y="590" as="sourcePoint" />
            <mxPoint x="190" y="360" as="targetPoint" />
          </mxGeometry>
        </mxCell>
        <mxCell id="uxtCyuWDyrGsz1N1gTnN-19" value="" style="endArrow=block;endSize=16;endFill=0;html=1;rounded=0;entryX=0.5;entryY=1;entryDx=0;entryDy=0;edgeStyle=orthogonalEdgeStyle;entryPerimeter=0;exitX=0.95;exitY=0;exitDx=0;exitDy=0;exitPerimeter=0;" parent="1" source="uxtCyuWDyrGsz1N1gTnN-3" target="owJIEZNdWxY9dRHaCqxD-3" edge="1">
          <mxGeometry width="160" relative="1" as="geometry">
            <mxPoint x="470" y="500" as="sourcePoint" />
            <mxPoint x="180" y="350" as="targetPoint" />
            <Array as="points">
              <mxPoint x="470" y="480" />
              <mxPoint x="460" y="480" />
            </Array>
          </mxGeometry>
        </mxCell>
        <mxCell id="uxtCyuWDyrGsz1N1gTnN-21" value="" style="endArrow=block;endSize=16;endFill=0;html=1;rounded=0;entryX=0.5;entryY=1;entryDx=0;entryDy=0;exitX=0.85;exitY=0;exitDx=0;exitDy=0;edgeStyle=orthogonalEdgeStyle;entryPerimeter=0;exitPerimeter=0;" parent="1" source="owJIEZNdWxY9dRHaCqxD-15" target="owJIEZNdWxY9dRHaCqxD-2" edge="1">
          <mxGeometry width="160" relative="1" as="geometry">
            <mxPoint x="200" y="510" as="sourcePoint" />
            <mxPoint x="200" y="370" as="targetPoint" />
          </mxGeometry>
        </mxCell>
        <mxCell id="uxtCyuWDyrGsz1N1gTnN-22" value="" style="endArrow=block;endSize=16;endFill=0;html=1;rounded=0;entryX=0.25;entryY=1;entryDx=0;entryDy=0;exitX=0.5;exitY=0;exitDx=0;exitDy=0;edgeStyle=orthogonalEdgeStyle;entryPerimeter=0;" parent="1" source="owJIEZNdWxY9dRHaCqxD-11" target="owJIEZNdWxY9dRHaCqxD-3" edge="1">
          <mxGeometry width="160" relative="1" as="geometry">
            <mxPoint x="210" y="520" as="sourcePoint" />
            <mxPoint x="210" y="380" as="targetPoint" />
            <Array as="points">
              <mxPoint x="140" y="480" />
              <mxPoint x="390" y="480" />
            </Array>
          </mxGeometry>
        </mxCell>
        <mxCell id="uxtCyuWDyrGsz1N1gTnN-23" value="" style="endArrow=block;endSize=16;endFill=0;html=1;rounded=0;entryX=0.75;entryY=1;entryDx=0;entryDy=0;exitX=0.1;exitY=0;exitDx=0;exitDy=0;edgeStyle=orthogonalEdgeStyle;exitPerimeter=0;entryPerimeter=0;" parent="1" source="uxtCyuWDyrGsz1N1gTnN-7" target="owJIEZNdWxY9dRHaCqxD-3" edge="1">
          <mxGeometry width="160" relative="1" as="geometry">
            <mxPoint x="220" y="530" as="sourcePoint" />
            <mxPoint x="220" y="390" as="targetPoint" />
            <Array as="points">
              <mxPoint x="540" y="480" />
              <mxPoint x="530" y="480" />
            </Array>
          </mxGeometry>
        </mxCell>
        <mxCell id="uxtCyuWDyrGsz1N1gTnN-24" value="" style="endArrow=block;endSize=16;endFill=0;html=1;rounded=0;entryX=0.75;entryY=1;entryDx=0;entryDy=0;exitX=0.1;exitY=0;exitDx=0;exitDy=0;edgeStyle=orthogonalEdgeStyle;exitPerimeter=0;entryPerimeter=0;" parent="1" source="uxtCyuWDyrGsz1N1gTnN-5" target="owJIEZNdWxY9dRHaCqxD-3" edge="1">
          <mxGeometry width="160" relative="1" as="geometry">
            <mxPoint x="230" y="540" as="sourcePoint" />
            <mxPoint x="230" y="400" as="targetPoint" />
            <Array as="points">
              <mxPoint x="620" y="480" />
              <mxPoint x="530" y="480" />
            </Array>
          </mxGeometry>
        </mxCell>
        <mxCell id="uxtCyuWDyrGsz1N1gTnN-25" value="" style="endArrow=block;endSize=16;endFill=0;html=1;rounded=0;entryX=0.75;entryY=1;entryDx=0;entryDy=0;edgeStyle=orthogonalEdgeStyle;entryPerimeter=0;exitX=0.1;exitY=0;exitDx=0;exitDy=0;exitPerimeter=0;" parent="1" source="owJIEZNdWxY9dRHaCqxD-17" target="owJIEZNdWxY9dRHaCqxD-3" edge="1">
          <mxGeometry width="160" relative="1" as="geometry">
            <mxPoint x="640" y="510" as="sourcePoint" />
            <mxPoint x="240" y="410" as="targetPoint" />
          </mxGeometry>
        </mxCell>
      </root>
    </mxGraphModel>
  </diagram>
  <diagram name="Flux" id="ncFOR2sHb5S-Ez79psqo">
    <mxGraphModel dx="2074" dy="1160" grid="1" gridSize="10" guides="1" tooltips="1" connect="1" arrows="1" fold="1" page="1" pageScale="1" pageWidth="827" pageHeight="1169" math="0" shadow="0">
      <root>
        <mxCell id="pXG8hLzSm78ebMOZL100-0" />
        <mxCell id="pXG8hLzSm78ebMOZL100-1" parent="pXG8hLzSm78ebMOZL100-0" />
        <mxCell id="pXG8hLzSm78ebMOZL100-2" style="rounded=0;orthogonalLoop=1;jettySize=auto;html=1;entryX=0;entryY=0.5;entryDx=0;entryDy=0;" parent="pXG8hLzSm78ebMOZL100-1" source="pXG8hLzSm78ebMOZL100-3" target="pXG8hLzSm78ebMOZL100-7" edge="1">
          <mxGeometry relative="1" as="geometry" />
        </mxCell>
        <mxCell id="pXG8hLzSm78ebMOZL100-3" value="ShowQuestion" style="rounded=1;whiteSpace=wrap;html=1;fillColor=#fff2cc;strokeColor=#d6b656;" parent="pXG8hLzSm78ebMOZL100-1" vertex="1">
          <mxGeometry x="60" y="400" width="100" height="40" as="geometry" />
        </mxCell>
        <mxCell id="pXG8hLzSm78ebMOZL100-4" value="ChallengeBuzzer" style="rounded=1;whiteSpace=wrap;html=1;fillColor=#fff2cc;strokeColor=#d6b656;" parent="pXG8hLzSm78ebMOZL100-1" vertex="1">
          <mxGeometry x="180" y="460" width="100" height="40" as="geometry" />
        </mxCell>
        <mxCell id="pXG8hLzSm78ebMOZL100-5" value="ChallengeAnswer" style="rounded=1;whiteSpace=wrap;html=1;fillColor=#fff2cc;strokeColor=#d6b656;" parent="pXG8hLzSm78ebMOZL100-1" vertex="1">
          <mxGeometry x="300" y="460" width="100" height="40" as="geometry" />
        </mxCell>
        <mxCell id="pXG8hLzSm78ebMOZL100-6" value="Classic" style="rounded=1;whiteSpace=wrap;html=1;fillColor=#fff2cc;strokeColor=#d6b656;" parent="pXG8hLzSm78ebMOZL100-1" vertex="1">
          <mxGeometry x="180" y="340" width="100" height="40" as="geometry" />
        </mxCell>
        <mxCell id="pXG8hLzSm78ebMOZL100-7" value="Single" style="rounded=1;whiteSpace=wrap;html=1;fillColor=#fff2cc;strokeColor=#d6b656;" parent="pXG8hLzSm78ebMOZL100-1" vertex="1">
          <mxGeometry x="180" y="400" width="100" height="40" as="geometry" />
        </mxCell>
        <mxCell id="pXG8hLzSm78ebMOZL100-8" style="edgeStyle=orthogonalEdgeStyle;rounded=0;orthogonalLoop=1;jettySize=auto;html=1;entryX=0.5;entryY=1;entryDx=0;entryDy=0;exitX=1;exitY=0.5;exitDx=0;exitDy=0;" parent="pXG8hLzSm78ebMOZL100-1" source="pXG8hLzSm78ebMOZL100-9" target="pXG8hLzSm78ebMOZL100-10" edge="1">
          <mxGeometry relative="1" as="geometry">
            <mxPoint x="600" y="430" as="sourcePoint" />
          </mxGeometry>
        </mxCell>
        <mxCell id="pXG8hLzSm78ebMOZL100-9" value="Validation" style="rounded=1;whiteSpace=wrap;html=1;fillColor=#fff2cc;strokeColor=#d6b656;" parent="pXG8hLzSm78ebMOZL100-1" vertex="1">
          <mxGeometry x="370" y="400" width="100" height="40" as="geometry" />
        </mxCell>
        <mxCell id="pXG8hLzSm78ebMOZL100-10" value="Result" style="rounded=1;whiteSpace=wrap;html=1;fillColor=#fff2cc;strokeColor=#d6b656;" parent="pXG8hLzSm78ebMOZL100-1" vertex="1">
          <mxGeometry x="440" y="340" width="100" height="40" as="geometry" />
        </mxCell>
        <mxCell id="pXG8hLzSm78ebMOZL100-11" value="" style="endArrow=classic;html=1;rounded=0;exitX=1;exitY=0.5;exitDx=0;exitDy=0;entryX=0;entryY=0.5;entryDx=0;entryDy=0;" parent="pXG8hLzSm78ebMOZL100-1" source="pXG8hLzSm78ebMOZL100-3" target="pXG8hLzSm78ebMOZL100-6" edge="1">
          <mxGeometry width="50" height="50" relative="1" as="geometry">
            <mxPoint x="410" y="410" as="sourcePoint" />
            <mxPoint x="460" y="360" as="targetPoint" />
          </mxGeometry>
        </mxCell>
        <mxCell id="pXG8hLzSm78ebMOZL100-12" value="" style="endArrow=classic;html=1;rounded=0;exitX=1;exitY=0.5;exitDx=0;exitDy=0;entryX=0;entryY=0.5;entryDx=0;entryDy=0;" parent="pXG8hLzSm78ebMOZL100-1" source="pXG8hLzSm78ebMOZL100-3" target="pXG8hLzSm78ebMOZL100-4" edge="1">
          <mxGeometry width="50" height="50" relative="1" as="geometry">
            <mxPoint x="410" y="410" as="sourcePoint" />
            <mxPoint x="460" y="360" as="targetPoint" />
          </mxGeometry>
        </mxCell>
        <mxCell id="pXG8hLzSm78ebMOZL100-13" value="" style="endArrow=classic;html=1;rounded=0;exitX=1;exitY=0.5;exitDx=0;exitDy=0;entryX=0;entryY=0.5;entryDx=0;entryDy=0;" parent="pXG8hLzSm78ebMOZL100-1" source="pXG8hLzSm78ebMOZL100-6" target="pXG8hLzSm78ebMOZL100-10" edge="1">
          <mxGeometry width="50" height="50" relative="1" as="geometry">
            <mxPoint x="410" y="410" as="sourcePoint" />
            <mxPoint x="380" y="410" as="targetPoint" />
          </mxGeometry>
        </mxCell>
        <mxCell id="pXG8hLzSm78ebMOZL100-14" value="" style="endArrow=classic;html=1;rounded=0;exitX=1;exitY=0.5;exitDx=0;exitDy=0;entryX=0;entryY=0.5;entryDx=0;entryDy=0;" parent="pXG8hLzSm78ebMOZL100-1" source="pXG8hLzSm78ebMOZL100-4" target="pXG8hLzSm78ebMOZL100-5" edge="1">
          <mxGeometry width="50" height="50" relative="1" as="geometry">
            <mxPoint x="420" y="420" as="sourcePoint" />
            <mxPoint x="470" y="370" as="targetPoint" />
          </mxGeometry>
        </mxCell>
        <mxCell id="pXG8hLzSm78ebMOZL100-15" value="" style="endArrow=classic;html=1;rounded=0;exitX=1;exitY=0.5;exitDx=0;exitDy=0;entryX=0;entryY=0.5;entryDx=0;entryDy=0;" parent="pXG8hLzSm78ebMOZL100-1" source="pXG8hLzSm78ebMOZL100-7" target="pXG8hLzSm78ebMOZL100-9" edge="1">
          <mxGeometry width="50" height="50" relative="1" as="geometry">
            <mxPoint x="430" y="430" as="sourcePoint" />
            <mxPoint x="480" y="380" as="targetPoint" />
          </mxGeometry>
        </mxCell>
        <mxCell id="pXG8hLzSm78ebMOZL100-16" value="" style="endArrow=classic;html=1;rounded=0;exitX=1;exitY=0.5;exitDx=0;exitDy=0;entryX=0.5;entryY=1;entryDx=0;entryDy=0;edgeStyle=orthogonalEdgeStyle;shadow=0;sourcePerimeterSpacing=0;" parent="pXG8hLzSm78ebMOZL100-1" source="pXG8hLzSm78ebMOZL100-5" target="pXG8hLzSm78ebMOZL100-9" edge="1">
          <mxGeometry width="50" height="50" relative="1" as="geometry">
            <mxPoint x="440" y="440" as="sourcePoint" />
            <mxPoint x="490" y="390" as="targetPoint" />
          </mxGeometry>
        </mxCell>
      </root>
    </mxGraphModel>
  </diagram>
  <diagram id="hky8dO9TruCKkzGZ7AIr" name="FluxExpanded">
    <mxGraphModel dx="1434" dy="800" grid="1" gridSize="10" guides="1" tooltips="1" connect="1" arrows="1" fold="1" page="1" pageScale="1" pageWidth="827" pageHeight="1169" math="0" shadow="0">
      <root>
        <mxCell id="0" />
        <mxCell id="1" parent="0" />
        <mxCell id="Ly0orgnQ2B6kMDrNIYPd-10" style="rounded=0;orthogonalLoop=1;jettySize=auto;html=1;entryX=0;entryY=0.5;entryDx=0;entryDy=0;" parent="1" source="Ly0orgnQ2B6kMDrNIYPd-1" target="Ly0orgnQ2B6kMDrNIYPd-6" edge="1">
          <mxGeometry relative="1" as="geometry" />
        </mxCell>
        <mxCell id="Ly0orgnQ2B6kMDrNIYPd-1" value="ShowQuestion" style="rounded=1;whiteSpace=wrap;html=1;fillColor=#fff2cc;strokeColor=#d6b656;" parent="1" vertex="1">
          <mxGeometry x="40" y="400" width="100" height="40" as="geometry" />
        </mxCell>
        <mxCell id="Ly0orgnQ2B6kMDrNIYPd-2" value="ChallengeBuzzer" style="rounded=1;whiteSpace=wrap;html=1;fillColor=#fff2cc;strokeColor=#d6b656;" parent="1" vertex="1">
          <mxGeometry x="180" y="460" width="100" height="40" as="geometry" />
        </mxCell>
        <mxCell id="Ly0orgnQ2B6kMDrNIYPd-3" value="ChallengeAnswer" style="rounded=1;whiteSpace=wrap;html=1;fillColor=#fff2cc;strokeColor=#d6b656;" parent="1" vertex="1">
          <mxGeometry x="320" y="460" width="100" height="40" as="geometry" />
        </mxCell>
        <mxCell id="Ly0orgnQ2B6kMDrNIYPd-5" value="Classic" style="rounded=1;whiteSpace=wrap;html=1;fillColor=#fff2cc;strokeColor=#d6b656;" parent="1" vertex="1">
          <mxGeometry x="180" y="340" width="100" height="40" as="geometry" />
        </mxCell>
        <mxCell id="Ly0orgnQ2B6kMDrNIYPd-6" value="Single" style="rounded=1;whiteSpace=wrap;html=1;fillColor=#fff2cc;strokeColor=#d6b656;" parent="1" vertex="1">
          <mxGeometry x="180" y="400" width="100" height="40" as="geometry" />
        </mxCell>
        <mxCell id="Ly0orgnQ2B6kMDrNIYPd-19" style="edgeStyle=orthogonalEdgeStyle;rounded=0;orthogonalLoop=1;jettySize=auto;html=1;entryX=0.5;entryY=1;entryDx=0;entryDy=0;exitX=1;exitY=0.5;exitDx=0;exitDy=0;" parent="1" source="Ly0orgnQ2B6kMDrNIYPd-7" target="Ly0orgnQ2B6kMDrNIYPd-8" edge="1">
          <mxGeometry relative="1" as="geometry">
            <mxPoint x="600" y="430" as="sourcePoint" />
          </mxGeometry>
        </mxCell>
        <mxCell id="Ly0orgnQ2B6kMDrNIYPd-7" value="Validation" style="rounded=1;whiteSpace=wrap;html=1;fillColor=#fff2cc;strokeColor=#d6b656;" parent="1" vertex="1">
          <mxGeometry x="460" y="400" width="100" height="40" as="geometry" />
        </mxCell>
        <mxCell id="Ly0orgnQ2B6kMDrNIYPd-8" value="Result" style="rounded=1;whiteSpace=wrap;html=1;fillColor=#fff2cc;strokeColor=#d6b656;" parent="1" vertex="1">
          <mxGeometry x="600" y="340" width="100" height="40" as="geometry" />
        </mxCell>
        <mxCell id="Ly0orgnQ2B6kMDrNIYPd-9" value="" style="endArrow=classic;html=1;rounded=0;exitX=1;exitY=0.5;exitDx=0;exitDy=0;entryX=0;entryY=0.5;entryDx=0;entryDy=0;" parent="1" source="Ly0orgnQ2B6kMDrNIYPd-1" target="Ly0orgnQ2B6kMDrNIYPd-5" edge="1">
          <mxGeometry width="50" height="50" relative="1" as="geometry">
            <mxPoint x="410" y="410" as="sourcePoint" />
            <mxPoint x="460" y="360" as="targetPoint" />
          </mxGeometry>
        </mxCell>
        <mxCell id="Ly0orgnQ2B6kMDrNIYPd-12" value="" style="endArrow=classic;html=1;rounded=0;exitX=1;exitY=0.5;exitDx=0;exitDy=0;entryX=0;entryY=0.5;entryDx=0;entryDy=0;" parent="1" source="Ly0orgnQ2B6kMDrNIYPd-1" target="Ly0orgnQ2B6kMDrNIYPd-2" edge="1">
          <mxGeometry width="50" height="50" relative="1" as="geometry">
            <mxPoint x="410" y="410" as="sourcePoint" />
            <mxPoint x="460" y="360" as="targetPoint" />
          </mxGeometry>
        </mxCell>
        <mxCell id="Ly0orgnQ2B6kMDrNIYPd-14" value="" style="endArrow=classic;html=1;rounded=0;exitX=1;exitY=0.5;exitDx=0;exitDy=0;entryX=0;entryY=0.5;entryDx=0;entryDy=0;" parent="1" source="Ly0orgnQ2B6kMDrNIYPd-5" target="Ly0orgnQ2B6kMDrNIYPd-8" edge="1">
          <mxGeometry width="50" height="50" relative="1" as="geometry">
            <mxPoint x="410" y="410" as="sourcePoint" />
            <mxPoint x="380" y="410" as="targetPoint" />
          </mxGeometry>
        </mxCell>
        <mxCell id="Ly0orgnQ2B6kMDrNIYPd-15" value="" style="endArrow=classic;html=1;rounded=0;exitX=1;exitY=0.5;exitDx=0;exitDy=0;entryX=0;entryY=0.5;entryDx=0;entryDy=0;" parent="1" source="Ly0orgnQ2B6kMDrNIYPd-2" target="Ly0orgnQ2B6kMDrNIYPd-3" edge="1">
          <mxGeometry width="50" height="50" relative="1" as="geometry">
            <mxPoint x="420" y="420" as="sourcePoint" />
            <mxPoint x="470" y="370" as="targetPoint" />
          </mxGeometry>
        </mxCell>
        <mxCell id="Ly0orgnQ2B6kMDrNIYPd-16" value="" style="endArrow=classic;html=1;rounded=0;exitX=1;exitY=0.5;exitDx=0;exitDy=0;entryX=0;entryY=0.5;entryDx=0;entryDy=0;" parent="1" source="Ly0orgnQ2B6kMDrNIYPd-6" target="Ly0orgnQ2B6kMDrNIYPd-7" edge="1">
          <mxGeometry width="50" height="50" relative="1" as="geometry">
            <mxPoint x="430" y="430" as="sourcePoint" />
            <mxPoint x="480" y="380" as="targetPoint" />
          </mxGeometry>
        </mxCell>
        <mxCell id="Ly0orgnQ2B6kMDrNIYPd-17" value="" style="endArrow=classic;html=1;rounded=0;exitX=1;exitY=0.5;exitDx=0;exitDy=0;entryX=0.5;entryY=1;entryDx=0;entryDy=0;edgeStyle=orthogonalEdgeStyle;shadow=0;sourcePerimeterSpacing=0;" parent="1" source="Ly0orgnQ2B6kMDrNIYPd-3" target="Ly0orgnQ2B6kMDrNIYPd-7" edge="1">
          <mxGeometry width="50" height="50" relative="1" as="geometry">
            <mxPoint x="440" y="440" as="sourcePoint" />
            <mxPoint x="490" y="390" as="targetPoint" />
          </mxGeometry>
        </mxCell>
      </root>
    </mxGraphModel>
  </diagram>
  <diagram name="FluxCompressed" id="Px0dbSBgAyF8jM4ShpMF">
    <mxGraphModel dx="1434" dy="800" grid="1" gridSize="10" guides="1" tooltips="1" connect="1" arrows="1" fold="1" page="1" pageScale="1" pageWidth="827" pageHeight="1169" math="0" shadow="0">
      <root>
        <mxCell id="sNDCHTAEtiqPExUvRGFO-0" />
        <mxCell id="sNDCHTAEtiqPExUvRGFO-1" parent="sNDCHTAEtiqPExUvRGFO-0" />
        <mxCell id="sNDCHTAEtiqPExUvRGFO-2" style="rounded=0;orthogonalLoop=1;jettySize=auto;html=1;entryX=0;entryY=0.5;entryDx=0;entryDy=0;" parent="sNDCHTAEtiqPExUvRGFO-1" source="sNDCHTAEtiqPExUvRGFO-3" target="sNDCHTAEtiqPExUvRGFO-7" edge="1">
          <mxGeometry relative="1" as="geometry" />
        </mxCell>
        <mxCell id="sNDCHTAEtiqPExUvRGFO-3" value="ShowQuestion" style="rounded=1;whiteSpace=wrap;html=1;fillColor=#fff2cc;strokeColor=#d6b656;" parent="sNDCHTAEtiqPExUvRGFO-1" vertex="1">
          <mxGeometry x="40" y="400" width="100" height="40" as="geometry" />
        </mxCell>
        <mxCell id="sNDCHTAEtiqPExUvRGFO-4" value="ChallengeBuzzer" style="rounded=1;whiteSpace=wrap;html=1;fillColor=#fff2cc;strokeColor=#d6b656;" parent="sNDCHTAEtiqPExUvRGFO-1" vertex="1">
          <mxGeometry x="180" y="460" width="100" height="40" as="geometry" />
        </mxCell>
        <mxCell id="sNDCHTAEtiqPExUvRGFO-5" value="ChallengeAnswer" style="rounded=1;whiteSpace=wrap;html=1;fillColor=#fff2cc;strokeColor=#d6b656;" parent="sNDCHTAEtiqPExUvRGFO-1" vertex="1">
          <mxGeometry x="320" y="460" width="100" height="40" as="geometry" />
        </mxCell>
        <mxCell id="sNDCHTAEtiqPExUvRGFO-6" value="Classic" style="rounded=1;whiteSpace=wrap;html=1;fillColor=#fff2cc;strokeColor=#d6b656;" parent="sNDCHTAEtiqPExUvRGFO-1" vertex="1">
          <mxGeometry x="180" y="340" width="100" height="40" as="geometry" />
        </mxCell>
        <mxCell id="sNDCHTAEtiqPExUvRGFO-7" value="Single" style="rounded=1;whiteSpace=wrap;html=1;fillColor=#fff2cc;strokeColor=#d6b656;" parent="sNDCHTAEtiqPExUvRGFO-1" vertex="1">
          <mxGeometry x="180" y="400" width="100" height="40" as="geometry" />
        </mxCell>
        <mxCell id="sNDCHTAEtiqPExUvRGFO-8" style="edgeStyle=orthogonalEdgeStyle;rounded=0;orthogonalLoop=1;jettySize=auto;html=1;entryX=0.5;entryY=1;entryDx=0;entryDy=0;exitX=0.5;exitY=0;exitDx=0;exitDy=0;" parent="sNDCHTAEtiqPExUvRGFO-1" source="sNDCHTAEtiqPExUvRGFO-9" target="sNDCHTAEtiqPExUvRGFO-10" edge="1">
          <mxGeometry relative="1" as="geometry">
            <mxPoint x="450" y="430" as="sourcePoint" />
          </mxGeometry>
        </mxCell>
        <mxCell id="sNDCHTAEtiqPExUvRGFO-9" value="Validation" style="rounded=1;whiteSpace=wrap;html=1;fillColor=#fff2cc;strokeColor=#d6b656;" parent="sNDCHTAEtiqPExUvRGFO-1" vertex="1">
          <mxGeometry x="320" y="400" width="100" height="40" as="geometry" />
        </mxCell>
        <mxCell id="sNDCHTAEtiqPExUvRGFO-10" value="Result" style="rounded=1;whiteSpace=wrap;html=1;fillColor=#fff2cc;strokeColor=#d6b656;" parent="sNDCHTAEtiqPExUvRGFO-1" vertex="1">
          <mxGeometry x="320" y="340" width="100" height="40" as="geometry" />
        </mxCell>
        <mxCell id="sNDCHTAEtiqPExUvRGFO-11" value="" style="endArrow=classic;html=1;rounded=0;exitX=1;exitY=0.5;exitDx=0;exitDy=0;entryX=0;entryY=0.5;entryDx=0;entryDy=0;" parent="sNDCHTAEtiqPExUvRGFO-1" source="sNDCHTAEtiqPExUvRGFO-3" target="sNDCHTAEtiqPExUvRGFO-6" edge="1">
          <mxGeometry width="50" height="50" relative="1" as="geometry">
            <mxPoint x="410" y="410" as="sourcePoint" />
            <mxPoint x="460" y="360" as="targetPoint" />
          </mxGeometry>
        </mxCell>
        <mxCell id="sNDCHTAEtiqPExUvRGFO-12" value="" style="endArrow=classic;html=1;rounded=0;exitX=1;exitY=0.5;exitDx=0;exitDy=0;entryX=0;entryY=0.5;entryDx=0;entryDy=0;" parent="sNDCHTAEtiqPExUvRGFO-1" source="sNDCHTAEtiqPExUvRGFO-3" target="sNDCHTAEtiqPExUvRGFO-4" edge="1">
          <mxGeometry width="50" height="50" relative="1" as="geometry">
            <mxPoint x="410" y="410" as="sourcePoint" />
            <mxPoint x="460" y="360" as="targetPoint" />
          </mxGeometry>
        </mxCell>
        <mxCell id="sNDCHTAEtiqPExUvRGFO-13" value="" style="endArrow=classic;html=1;rounded=0;exitX=1;exitY=0.5;exitDx=0;exitDy=0;entryX=0;entryY=0.5;entryDx=0;entryDy=0;" parent="sNDCHTAEtiqPExUvRGFO-1" source="sNDCHTAEtiqPExUvRGFO-6" target="sNDCHTAEtiqPExUvRGFO-10" edge="1">
          <mxGeometry width="50" height="50" relative="1" as="geometry">
            <mxPoint x="410" y="410" as="sourcePoint" />
            <mxPoint x="380" y="410" as="targetPoint" />
          </mxGeometry>
        </mxCell>
        <mxCell id="sNDCHTAEtiqPExUvRGFO-14" value="" style="endArrow=classic;html=1;rounded=0;exitX=1;exitY=0.5;exitDx=0;exitDy=0;entryX=0;entryY=0.5;entryDx=0;entryDy=0;" parent="sNDCHTAEtiqPExUvRGFO-1" source="sNDCHTAEtiqPExUvRGFO-4" target="sNDCHTAEtiqPExUvRGFO-5" edge="1">
          <mxGeometry width="50" height="50" relative="1" as="geometry">
            <mxPoint x="420" y="420" as="sourcePoint" />
            <mxPoint x="470" y="370" as="targetPoint" />
          </mxGeometry>
        </mxCell>
        <mxCell id="sNDCHTAEtiqPExUvRGFO-15" value="" style="endArrow=classic;html=1;rounded=0;exitX=1;exitY=0.5;exitDx=0;exitDy=0;entryX=0;entryY=0.5;entryDx=0;entryDy=0;" parent="sNDCHTAEtiqPExUvRGFO-1" source="sNDCHTAEtiqPExUvRGFO-7" target="sNDCHTAEtiqPExUvRGFO-9" edge="1">
          <mxGeometry width="50" height="50" relative="1" as="geometry">
            <mxPoint x="430" y="430" as="sourcePoint" />
            <mxPoint x="480" y="380" as="targetPoint" />
          </mxGeometry>
        </mxCell>
        <mxCell id="sNDCHTAEtiqPExUvRGFO-16" value="" style="endArrow=classic;html=1;rounded=0;exitX=0.5;exitY=0;exitDx=0;exitDy=0;entryX=0.5;entryY=1;entryDx=0;entryDy=0;edgeStyle=orthogonalEdgeStyle;shadow=0;sourcePerimeterSpacing=0;" parent="sNDCHTAEtiqPExUvRGFO-1" source="sNDCHTAEtiqPExUvRGFO-5" target="sNDCHTAEtiqPExUvRGFO-9" edge="1">
          <mxGeometry width="50" height="50" relative="1" as="geometry">
            <mxPoint x="440" y="440" as="sourcePoint" />
            <mxPoint x="490" y="390" as="targetPoint" />
          </mxGeometry>
        </mxCell>
      </root>
    </mxGraphModel>
  </diagram>
</mxfile>
